<svg width="17" height="20" viewBox="0 0 17 20" fill="none" xmlns="http://www.w3.org/2000/svg">
<path d="M14.6425 0.67122C14.8221 0.615154 15.0124 0.602102 15.1979 0.633118C15.3835 0.664134 15.5592 0.738349 15.7108 0.849772C15.8624 0.961195 15.9856 1.1067 16.0706 1.27455C16.1557 1.4424 16.2 1.62788 16.2001 1.81602V14.2C16.2001 14.8758 15.9719 15.5318 15.5525 16.0618C15.1331 16.5917 14.5471 16.9645 13.8894 17.1198C13.2316 17.275 12.5407 17.2037 11.9286 16.9173C11.3165 16.6308 10.8191 16.1461 10.5168 15.5417C10.2146 14.9372 10.1253 14.2484 10.2634 13.5869C10.4016 12.9253 10.759 12.3298 11.2779 11.8968C11.7967 11.4637 12.4466 11.2186 13.1222 11.201C13.7977 11.1835 14.4595 11.3945 15.0001 11.8V5.41602L6.6001 8.04162V16.6C6.6001 17.2758 6.37192 17.9318 5.95252 18.4618C5.53313 18.9917 4.94709 19.3645 4.28936 19.5198C3.63163 19.675 2.94074 19.6037 2.32863 19.3173C1.71652 19.0308 1.21905 18.5461 0.91682 17.9417C0.614589 17.3372 0.525304 16.6484 0.663431 15.9869C0.801559 15.3253 1.15901 14.7298 1.67786 14.2968C2.19671 13.8637 2.84657 13.6186 3.52215 13.601C4.19774 13.5835 4.85945 13.7945 5.4001 14.2V4.44162C5.39999 4.18574 5.48167 3.93653 5.63322 3.73037C5.78477 3.5242 5.99825 3.37187 6.2425 3.29562L14.6425 0.67122ZM6.6001 6.78402L15.0001 4.15842V1.81602L6.6001 4.44162V6.78402ZM3.6001 14.8C3.12271 14.8 2.66487 14.9897 2.32731 15.3272C1.98974 15.6648 1.8001 16.1226 1.8001 16.6C1.8001 17.0774 1.98974 17.5352 2.32731 17.8728C2.66487 18.2104 3.12271 18.4 3.6001 18.4C4.07749 18.4 4.53533 18.2104 4.87289 17.8728C5.21046 17.5352 5.4001 17.0774 5.4001 16.6C5.4001 16.1226 5.21046 15.6648 4.87289 15.3272C4.53533 14.9897 4.07749 14.8 3.6001 14.8ZM11.4001 14.2C11.4001 14.6774 11.5897 15.1352 11.9273 15.4728C12.2649 15.8104 12.7227 16 13.2001 16C13.6775 16 14.1353 15.8104 14.4729 15.4728C14.8105 15.1352 15.0001 14.6774 15.0001 14.2C15.0001 13.7226 14.8105 13.2648 14.4729 12.9272C14.1353 12.5897 13.6775 12.4 13.2001 12.4C12.7227 12.4 12.2649 12.5897 11.9273 12.9272C11.5897 13.2648 11.4001 13.7226 11.4001 14.2Z" fill="#8A8A8F"/>
</svg>
