<svg width="24" height="24" viewBox="0 0 24 24" fill="none" xmlns="http://www.w3.org/2000/svg">
<path d="M5.6002 21.5998L5.44339 21.125L5.6614 21.053L5.8581 21.1714L5.6002 21.5998ZM2.4002 18.3998L2.82137 18.1303L2.95019 18.3317L2.87439 18.5584L2.4002 18.3998ZM0.800198 23.1852L0.957008 23.6599C0.777332 23.7193 0.579552 23.6721 0.445997 23.5381C0.312443 23.404 0.266001 23.2061 0.326002 23.0266L0.800198 23.1852ZM5.8581 21.1714C7.44673 22.1279 9.95103 22.6852 12.0002 22.6852V23.6852C9.82216 23.6852 7.12646 23.1023 5.3423 22.0282L5.8581 21.1714ZM12.0002 22.6852C17.91 22.6852 22.7002 17.8977 22.7002 11.9926H23.7002C23.7002 18.4506 18.4616 23.6852 12.0002 23.6852V22.6852ZM22.7002 11.9926C22.7002 6.08745 17.91 1.2998 12.0002 1.2998V0.299805C18.4616 0.299805 23.7002 5.53456 23.7002 11.9926H22.7002ZM12.0002 1.2998C6.09044 1.2998 1.3002 6.08745 1.3002 11.9926H0.300198C0.300198 5.53456 5.53876 0.299805 12.0002 0.299805V1.2998ZM1.3002 11.9926C1.3002 14.155 1.77891 16.501 2.82137 18.1303L1.97902 18.6693C0.797485 16.8225 0.300198 14.2656 0.300198 11.9926H1.3002ZM5.75701 22.0746L0.957008 23.6599L0.643389 22.7104L5.44339 21.125L5.75701 22.0746ZM0.326002 23.0266L1.926 18.2413L2.87439 18.5584L1.27439 23.3437L0.326002 23.0266Z" fill="#5A8FD5"/>
</svg>
