<svg width="14" height="13" viewBox="0 0 14 13" fill="none" xmlns="http://www.w3.org/2000/svg">
<g clip-path="url(#clip0)">
<path d="M1.50147 12.0294C1.51773 12.305 1.75437 12.5153 2.03004 12.4991L6.52223 12.2342C6.7979 12.2179 7.00819 11.9813 6.99193 11.7056C6.97568 11.4299 6.73903 11.2196 6.46337 11.2359L2.4703 11.4714L2.23484 7.4783C2.21859 7.20263 1.98194 6.99234 1.70628 7.0086C1.43062 7.02485 1.22032 7.2615 1.23658 7.53716L1.50147 12.0294ZM12.4997 0.970567C12.4835 0.694901 12.2469 0.484575 11.9712 0.50079L7.47901 0.765039C7.20334 0.781255 6.99302 1.01787 7.00923 1.29354C7.02545 1.5692 7.26206 1.77953 7.53773 1.76331L11.5308 1.52843L11.7657 5.52152C11.7819 5.79719 12.0185 6.00751 12.2942 5.9913C12.5699 5.97508 12.7802 5.73847 12.764 5.4628L12.4997 0.970567ZM2.37436 12.3321L6.37346 7.83177L5.62595 7.16751L1.62685 11.6678L2.37436 12.3321ZM8.37431 5.83211L12.3743 1.33211L11.6269 0.667746L7.6269 5.16775L8.37431 5.83211Z" fill="white"/>
</g>
<defs>
<clipPath id="clip0">
<rect width="14" height="13" fill="white"/>
</clipPath>
</defs>
</svg>
