<svg width="14" height="12" viewBox="0 0 14 12" fill="none" xmlns="http://www.w3.org/2000/svg">
<path d="M12.3073 0.81752C11.6623 0.292323 10.8346 0.00311749 9.97731 0.00311749C8.98643 0.00311749 8.02695 0.392388 7.34581 1.07C7.22309 1.19204 7.10829 1.32305 7.00113 1.46476C6.16673 0.371855 4.77567 -0.189782 3.39429 0.0577776C2.25074 0.262246 1.35233 0.882014 0.723153 1.89799C-0.162921 3.33158 -0.235146 4.7137 0.508827 6.00731C0.907238 6.70083 1.42397 7.37525 2.08691 8.06848C3.30269 9.34214 4.74249 10.5516 6.62033 11.875C6.73953 11.958 6.86754 11.9999 7.00054 11.9999C7.20635 11.9999 7.34581 11.8976 7.41451 11.8469C9.08273 10.6742 10.4509 9.54459 11.5977 8.39297C12.2468 7.74168 12.9832 6.94087 13.5216 5.94195C13.7521 5.51422 14.0154 4.93928 13.9993 4.28249C13.9649 2.86914 13.3957 1.70336 12.3073 0.81752Z" fill="#F11262"/>
</svg>
