<svg xmlns="http://www.w3.org/2000/svg" fill="none" viewBox="63.373 0 63.754 13.363636363636363" >
<path fill="#5A8FD5" d="M11.627 8.66699C11.5859 9.55762 11.3457 10.3457 10.9062 11.0312C10.4668 11.7109 9.84863 12.2383 9.05176 12.6133C8.26074 12.9883 7.35547 13.1758 6.33594 13.1758C4.6543 13.1758 3.33008 12.6279 2.36328 11.5322C1.39648 10.4365 0.913086 8.88965 0.913086 6.8916V6.25879C0.913086 5.00488 1.12988 3.90918 1.56348 2.97168C2.00293 2.02832 2.63281 1.30176 3.45312 0.791992C4.27344 0.276367 5.22266 0.0185547 6.30078 0.0185547C7.85352 0.0185547 9.10156 0.428711 10.0449 1.24902C10.9883 2.06348 11.5244 3.18848 11.6533 4.62402H8.57715C8.55371 3.84473 8.35742 3.28516 7.98828 2.94531C7.61914 2.60547 7.05664 2.43555 6.30078 2.43555C5.5332 2.43555 4.9707 2.72266 4.61328 3.29688C4.25586 3.87109 4.06836 4.78809 4.05078 6.04785V6.95312C4.05078 8.31836 4.2207 9.29395 4.56055 9.87988C4.90625 10.4658 5.49805 10.7588 6.33594 10.7588C7.04492 10.7588 7.58691 10.5918 7.96191 10.2578C8.33691 9.92383 8.53613 9.39355 8.55957 8.66699H11.627ZM17.8408 8.48242H16.1709V13H13.0859V0.203125H18.1221C19.6396 0.203125 20.8262 0.540039 21.6816 1.21387C22.5371 1.8877 22.9648 2.83984 22.9648 4.07031C22.9648 4.96094 22.7832 5.69922 22.4199 6.28516C22.0625 6.87109 21.5 7.3457 20.7324 7.70898L23.4043 12.8682V13H20.0996L17.8408 8.48242ZM16.1709 6.10059H18.1221C18.708 6.10059 19.1475 5.94824 19.4404 5.64355C19.7393 5.33301 19.8887 4.90234 19.8887 4.35156C19.8887 3.80078 19.7393 3.37012 19.4404 3.05957C19.1416 2.74316 18.7021 2.58496 18.1221 2.58496H16.1709V6.10059ZM35.665 6.86523C35.665 8.11328 35.4336 9.21777 34.9707 10.1787C34.5078 11.1396 33.8486 11.8809 32.9932 12.4023C32.1436 12.918 31.1738 13.1758 30.084 13.1758C28.9941 13.1758 28.0273 12.9268 27.1836 12.4287C26.3398 11.9248 25.6807 11.207 25.2061 10.2754C24.7373 9.34375 24.4912 8.27441 24.4678 7.06738V6.34668C24.4678 5.09277 24.6963 3.98828 25.1533 3.0332C25.6162 2.07227 26.2754 1.33105 27.1309 0.80957C27.9922 0.288086 28.9707 0.0273438 30.0664 0.0273438C31.1504 0.0273438 32.1172 0.285156 32.9668 0.800781C33.8164 1.31641 34.4756 2.05176 34.9443 3.00684C35.4189 3.95605 35.6592 5.0459 35.665 6.27637V6.86523ZM32.5273 6.3291C32.5273 5.05762 32.3135 4.09375 31.8857 3.4375C31.4639 2.77539 30.8574 2.44434 30.0664 2.44434C28.5195 2.44434 27.7021 3.60449 27.6143 5.9248L27.6055 6.86523C27.6055 8.11914 27.8135 9.08301 28.2295 9.75684C28.6455 10.4307 29.2637 10.7676 30.084 10.7676C30.8633 10.7676 31.4639 10.4365 31.8857 9.77441C32.3076 9.1123 32.5215 8.16016 32.5273 6.91797V6.3291ZM47.1699 8.22754L48.6377 0.203125H51.6963L48.9805 13H45.7812L44.0674 5.70508L42.3887 13H39.1982L36.4736 0.203125H39.541L41.0088 8.22754L42.7666 0.203125H45.3857L47.1699 8.22754ZM52.9004 13V0.203125H57.0225C58.1533 0.203125 59.1699 0.460937 60.0723 0.976562C60.9746 1.48633 61.6777 2.20996 62.1816 3.14746C62.6914 4.0791 62.9492 5.125 62.9551 6.28516V6.87402C62.9551 8.0459 62.7061 9.09766 62.208 10.0293C61.7158 10.9551 61.0186 11.6816 60.1162 12.209C59.2197 12.7305 58.2178 12.9941 57.1104 13H52.9004ZM55.9854 2.58496V10.627H57.0576C57.9424 10.627 58.6221 10.3135 59.0967 9.68652C59.5713 9.05371 59.8086 8.11621 59.8086 6.87402V6.32031C59.8086 5.08398 59.5713 4.15234 59.0967 3.52539C58.6221 2.89844 57.9307 2.58496 57.0225 2.58496H55.9854ZM71.1377 9.59863C71.1377 9.14746 70.9766 8.7959 70.6543 8.54395C70.3379 8.29199 69.7783 8.03125 68.9756 7.76172C68.1729 7.49219 67.5166 7.23145 67.0068 6.97949C65.3486 6.16504 64.5195 5.0459 64.5195 3.62207C64.5195 2.91309 64.7246 2.28906 65.1348 1.75C65.5508 1.20508 66.1367 0.783203 66.8926 0.484375C67.6484 0.179687 68.498 0.0273438 69.4414 0.0273438C70.3613 0.0273438 71.1846 0.191406 71.9111 0.519531C72.6436 0.847656 73.2119 1.31641 73.6162 1.92578C74.0205 2.5293 74.2227 3.2207 74.2227 4H71.1465C71.1465 3.47852 70.9854 3.07422 70.6631 2.78711C70.3467 2.5 69.916 2.35645 69.3711 2.35645C68.8203 2.35645 68.3838 2.47949 68.0615 2.72559C67.7451 2.96582 67.5869 3.27344 67.5869 3.64844C67.5869 3.97656 67.7627 4.27539 68.1143 4.54492C68.4658 4.80859 69.084 5.08398 69.9688 5.37109C70.8535 5.65234 71.5801 5.95703 72.1484 6.28516C73.5312 7.08203 74.2227 8.18066 74.2227 9.58105C74.2227 10.7002 73.8008 11.5791 72.957 12.2178C72.1133 12.8564 70.9561 13.1758 69.4854 13.1758C68.4482 13.1758 67.5078 12.9912 66.6641 12.6221C65.8262 12.2471 65.1934 11.7373 64.7656 11.0928C64.3438 10.4424 64.1328 9.69531 64.1328 8.85156H67.2266C67.2266 9.53711 67.4023 10.0439 67.7539 10.3721C68.1113 10.6943 68.6885 10.8555 69.4854 10.8555C69.9951 10.8555 70.3965 10.7471 70.6895 10.5303C70.9883 10.3076 71.1377 9.99707 71.1377 9.59863ZM86.6416 6.86523C86.6416 8.11328 86.4102 9.21777 85.9473 10.1787C85.4844 11.1396 84.8252 11.8809 83.9697 12.4023C83.1201 12.918 82.1504 13.1758 81.0605 13.1758C79.9707 13.1758 79.0039 12.9268 78.1602 12.4287C77.3164 11.9248 76.6572 11.207 76.1826 10.2754C75.7139 9.34375 75.4678 8.27441 75.4443 7.06738V6.34668C75.4443 5.09277 75.6729 3.98828 76.1299 3.0332C76.5928 2.07227 77.252 1.33105 78.1074 0.80957C78.9688 0.288086 79.9473 0.0273438 81.043 0.0273438C82.127 0.0273438 83.0938 0.285156 83.9434 0.800781C84.793 1.31641 85.4521 2.05176 85.9209 3.00684C86.3955 3.95605 86.6357 5.0459 86.6416 6.27637V6.86523ZM83.5039 6.3291C83.5039 5.05762 83.29 4.09375 82.8623 3.4375C82.4404 2.77539 81.834 2.44434 81.043 2.44434C79.4961 2.44434 78.6787 3.60449 78.5908 5.9248L78.582 6.86523C78.582 8.11914 78.79 9.08301 79.2061 9.75684C79.6221 10.4307 80.2402 10.7676 81.0605 10.7676C81.8398 10.7676 82.4404 10.4365 82.8623 9.77441C83.2842 9.1123 83.498 8.16016 83.5039 6.91797V6.3291ZM98.5859 8.66699C98.5449 9.55762 98.3047 10.3457 97.8652 11.0312C97.4258 11.7109 96.8076 12.2383 96.0107 12.6133C95.2197 12.9883 94.3145 13.1758 93.2949 13.1758C91.6133 13.1758 90.2891 12.6279 89.3223 11.5322C88.3555 10.4365 87.8721 8.88965 87.8721 6.8916V6.25879C87.8721 5.00488 88.0889 3.90918 88.5225 2.97168C88.9619 2.02832 89.5918 1.30176 90.4121 0.791992C91.2324 0.276367 92.1816 0.0185547 93.2598 0.0185547C94.8125 0.0185547 96.0605 0.428711 97.0039 1.24902C97.9473 2.06348 98.4834 3.18848 98.6123 4.62402H95.5361C95.5127 3.84473 95.3164 3.28516 94.9473 2.94531C94.5781 2.60547 94.0156 2.43555 93.2598 2.43555C92.4922 2.43555 91.9297 2.72266 91.5723 3.29688C91.2148 3.87109 91.0273 4.78809 91.0098 6.04785V6.95312C91.0098 8.31836 91.1797 9.29395 91.5195 9.87988C91.8652 10.4658 92.457 10.7588 93.2949 10.7588C94.0039 10.7588 94.5459 10.5918 94.9209 10.2578C95.2959 9.92383 95.4951 9.39355 95.5186 8.66699H98.5859ZM103.332 13H100.256V0.203125H103.332V13ZM112.903 10.6094H108.676L107.938 13H104.642L109.335 0.203125H112.235L116.964 13H113.65L112.903 10.6094ZM109.414 8.22754H112.165L110.785 3.78906L109.414 8.22754ZM120.989 10.627H126.359V13H117.904V0.203125H120.989V10.627Z"/>
</svg>