<svg width="22" height="18" viewBox="0 0 22 18" fill="none" xmlns="http://www.w3.org/2000/svg">
<path d="M21.0816 3.21749C20.6504 2.77111 20.0549 2.50734 19.3774 2.50734H15.969V2.46676C15.969 1.95952 15.7637 1.47256 15.4146 1.14792C15.0656 0.802996 14.5934 0.600098 14.08 0.600098H7.92035C7.38651 0.600098 6.91426 0.802996 6.56521 1.14792C6.21616 1.49285 6.01084 1.95952 6.01084 2.46676V2.50734H2.62301C1.94544 2.50734 1.35001 2.77111 0.918826 3.21749C0.487648 3.64358 0.200195 4.25227 0.200195 4.90155V15.0059C0.200195 15.6755 0.467115 16.2639 0.918826 16.69C1.35001 17.116 1.96597 17.4001 2.62301 17.4001H19.3774C20.0549 17.4001 20.6504 17.1363 21.0816 16.69C21.5127 16.2639 21.8002 15.6552 21.8002 15.0059V4.90155C21.8002 4.23198 21.5333 3.64358 21.0816 3.21749ZM20.7325 15.0059H20.712C20.712 15.3711 20.5683 15.6958 20.3219 15.9392C20.0755 16.1827 19.747 16.3247 19.3774 16.3247H2.62301C2.25343 16.3247 1.92491 16.1827 1.67852 15.9392C1.43213 15.6958 1.28841 15.3711 1.28841 15.0059V4.90155C1.28841 4.53633 1.43213 4.21169 1.67852 3.96821C1.92491 3.72474 2.25343 3.58271 2.62301 3.58271H6.58575C6.89373 3.58271 7.14012 3.33923 7.14012 3.03488V2.44647C7.14012 2.22329 7.22225 2.02039 7.36597 1.87836C7.5097 1.73633 7.71502 1.65517 7.94088 1.65517H14.08C14.3059 1.65517 14.5112 1.73633 14.6549 1.87836C14.7987 2.02039 14.8808 2.22329 14.8808 2.44647V3.03488C14.8808 3.33923 15.1272 3.58271 15.4352 3.58271H19.3979C19.7675 3.58271 20.096 3.72474 20.3424 3.96821C20.5888 4.21169 20.7325 4.53633 20.7325 4.90155V15.0059Z" fill="#8A8A8F"/>
<path d="M13.7101 10.2147L13.7102 10.2166C13.7242 10.9623 13.415 11.639 12.9204 12.1338C12.4253 12.6145 11.7475 12.9245 11.0004 12.9245C10.2533 12.9245 9.57547 12.6145 9.08035 12.1338C8.58684 11.64 8.29063 10.963 8.29063 10.2147C8.29063 9.46759 8.60064 8.7898 9.08137 8.29469C9.57514 7.80118 10.2521 7.50498 11.0004 7.50498C11.7475 7.50498 12.4253 7.81499 12.9204 8.29572C13.4139 8.78949 13.7101 9.46643 13.7101 10.2147ZM11.0004 6.5001C9.97759 6.5001 9.04516 6.92122 8.38334 7.58305C7.70667 8.25972 7.30039 9.17759 7.30039 10.2001C7.30039 11.2229 7.72152 12.1553 8.38334 12.8171C9.06001 13.4938 9.97789 13.9001 11.0004 13.9001C12.0232 13.9001 12.9556 13.479 13.6174 12.8171C14.2941 12.1405 14.7004 11.2226 14.7004 10.2001C14.7004 9.1773 14.2793 8.24487 13.6174 7.58305C12.9556 6.92122 12.0232 6.5001 11.0004 6.5001Z" fill="#8A8A8F" stroke="#8A8A8F" stroke-width="0.2"/>
</svg>
