<svg width="12" height="12" viewBox="0 0 12 12" fill="none" xmlns="http://www.w3.org/2000/svg">
<path fill-rule="evenodd" clip-rule="evenodd" d="M3.6 -6.10352e-05C2.49543 -6.10352e-05 1.6 0.89537 1.6 1.99994V2.22851C1.6 2.58721 1.70661 2.921 1.88988 3.19994H1.2C0.537258 3.19994 0 3.7372 0 4.39994V5.19994C0 5.86268 0.537259 6.39994 1.2 6.39994H5.6V3.19994H6.4V6.39994H10.8C11.4627 6.39994 12 5.86268 12 5.19994V4.39994C12 3.7372 11.4627 3.19994 10.8 3.19994H10.1101C10.2934 2.921 10.4 2.58721 10.4 2.22851V1.99994C10.4 0.89537 9.50457 -6.10352e-05 8.4 -6.10352e-05C7.38147 -6.10352e-05 6.48996 0.543773 6 1.35691C5.51004 0.543773 4.61853 -6.10352e-05 3.6 -6.10352e-05ZM6.4 3.19994H8.62857C9.16508 3.19994 9.6 2.76502 9.6 2.22851V1.99994C9.6 1.3372 9.06274 0.799939 8.4 0.799939C7.29543 0.799939 6.4 1.69537 6.4 2.79994V3.19994ZM5.6 3.19994H3.37143C2.83492 3.19994 2.4 2.76502 2.4 2.22851V1.99994C2.4 1.3372 2.93726 0.799939 3.6 0.799939C4.70457 0.799939 5.6 1.69537 5.6 2.79994V3.19994Z" fill="#4CC8B9"/>
<path d="M5.6 7.19994H0.8V9.99994C0.8 11.1045 1.69543 11.9999 2.8 11.9999H5.6V7.19994Z" fill="#4CC8B9"/>
<path d="M6.4 11.9999H9.2C10.3046 11.9999 11.2 11.1045 11.2 9.99994V7.19994H6.4V11.9999Z" fill="#4CC8B9"/>
</svg>
