<svg width="16" height="16" viewBox="0 0 16 16" fill="none" xmlns="http://www.w3.org/2000/svg">
<path fill-rule="evenodd" clip-rule="evenodd" d="M6.444 1L6.358 1.43699L6.02901 3.03599C5.50301 3.23699 5.026 3.52201 4.595 3.86001L2.987 3.322L2.55501 3.18801L2.33101 3.574L1.224 5.42597L1 5.81203L1.328 6.09902L2.57201 7.15799C2.52701 7.43499 2.46901 7.70897 2.46901 7.99997C2.46901 8.29097 2.52701 8.56501 2.57201 8.84201L1.328 9.90098L1 10.188L1.224 10.574L2.33101 12.426L2.55501 12.813L2.987 12.678L4.595 12.14C5.026 12.478 5.50301 12.7629 6.02901 12.9639L6.358 14.5629L6.444 15H9.55501L9.642 14.5629L9.97 12.9639C10.496 12.7629 10.973 12.478 11.404 12.14L13.012 12.678L13.444 12.813L13.669 12.426L14.775 10.574L15 10.188L14.671 9.90098L13.427 8.84201C13.473 8.56501 13.53 8.29097 13.53 7.99997C13.53 7.70897 13.473 7.43499 13.427 7.15799L14.671 6.09902L15 5.81203L14.775 5.42597L13.669 3.574L13.444 3.18801L13.012 3.322L11.404 3.86001C10.973 3.52201 10.496 3.23699 9.97 3.03599L9.642 1.43699L9.55501 1H6.444Z" stroke="#00A3FF" stroke-linecap="square" stroke-linejoin="round"/>
<path fill-rule="evenodd" clip-rule="evenodd" d="M9.99963 7.99997C9.99963 9.10397 9.10363 9.99999 7.99963 9.99999C6.89563 9.99999 5.99963 9.10397 5.99963 7.99997C5.99963 6.89597 6.89563 6.00001 7.99963 6.00001C9.10363 6.00001 9.99963 6.89597 9.99963 7.99997Z" stroke="#00A3FF" stroke-linecap="square" stroke-linejoin="round"/>
</svg>
