<svg width="16" height="16" viewBox="0 0 16 16" fill="none" xmlns="http://www.w3.org/2000/svg">
<path d="M15.2812 3.33333L6.62188 3.33333M6.62188 3.33333C6.62188 2.04467 5.70965 1 4.58437 1C3.45909 1 2.54687 2.04467 2.54687 3.33333M6.62188 3.33333C6.62188 4.622 5.70965 5.66667 4.58437 5.66667C3.45909 5.66667 2.54687 4.622 2.54687 3.33333M2.54687 3.33333L0 3.33333M15.2812 12.6667L12.7344 12.6667M12.7344 12.6667C12.7344 11.378 11.8222 10.3333 10.6969 10.3333C9.57159 10.3333 8.65937 11.378 8.65937 12.6667M12.7344 12.6667C12.7344 13.9553 11.8222 15 10.6969 15C9.57159 15 8.65937 13.9553 8.65937 12.6667M8.65937 12.6667H1.2953e-07" stroke="#575757"/>
</svg>
