<svg width="10" height="10" viewBox="0 0 10 10" fill="none" xmlns="http://www.w3.org/2000/svg">
<path d="M5 0C2.23859 0 0 2.23859 0 5C0 7.76141 2.23859 10 5 10C7.76141 10 10 7.76141 10 5C10 2.23859 7.76141 0 5 0ZM7.97471 3.84129L4.82553 6.99059C4.71518 7.10094 4.56565 7.16294 4.40953 7.16294C4.25341 7.16294 4.10388 7.10106 3.99353 6.99059L2.02518 5.02235C1.79541 4.79259 1.79541 4.42012 2.02518 4.19047C2.25494 3.96082 2.62729 3.96082 2.85706 4.19047L4.40941 5.74282L7.14294 3.00941C7.37247 2.77976 7.74518 2.77976 7.97471 3.00941C8.20447 3.23906 8.20447 3.61153 7.97471 3.84129Z" fill="#58C0ED"/>
</svg>
