<svg width="18" height="18" viewBox="0 0 18 18" fill="none" xmlns="http://www.w3.org/2000/svg">
<path d="M9 0C4.03725 0 0 4.03725 0 9C0 13.9628 4.03725 18 9 18C13.9628 18 18 13.9628 18 9C18 4.03725 13.9628 0 9 0ZM9 1.5C13.1512 1.5 16.5 4.84875 16.5 9C16.5 13.1512 13.1512 16.5 9 16.5C4.84875 16.5 1.5 13.1512 1.5 9C1.5 4.84875 4.84875 1.5 9 1.5ZM5.625 6C5.32663 6 5.04048 6.11853 4.8295 6.3295C4.61853 6.54048 4.5 6.82663 4.5 7.125C4.5 7.42337 4.61853 7.70952 4.8295 7.9205C5.04048 8.13147 5.32663 8.25 5.625 8.25C5.92337 8.25 6.20952 8.13147 6.4205 7.9205C6.63147 7.70952 6.75 7.42337 6.75 7.125C6.75 6.82663 6.63147 6.54048 6.4205 6.3295C6.20952 6.11853 5.92337 6 5.625 6ZM12.375 6C12.0766 6 11.7905 6.11853 11.5795 6.3295C11.3685 6.54048 11.25 6.82663 11.25 7.125C11.25 7.42337 11.3685 7.70952 11.5795 7.9205C11.7905 8.13147 12.0766 8.25 12.375 8.25C12.6734 8.25 12.9595 8.13147 13.1705 7.9205C13.3815 7.70952 13.5 7.42337 13.5 7.125C13.5 6.82663 13.3815 6.54048 13.1705 6.3295C12.9595 6.11853 12.6734 6 12.375 6ZM5.109 11.25L3.8205 12C4.85775 13.7902 6.78525 15 9 15C11.2148 15 13.1423 13.7902 14.1795 12L12.891 11.25C12.4979 11.9344 11.9311 12.5028 11.2479 12.8979C10.5646 13.293 9.78923 13.5007 9 13.5C8.21077 13.5007 7.43535 13.293 6.75213 12.8979C6.0689 12.5028 5.5021 11.9344 5.109 11.25Z" fill="#8A8A8F"/>
</svg>
