<svg width="20" height="18" viewBox="0 0 20 18" fill="none" xmlns="http://www.w3.org/2000/svg">
<path d="M8.3747 5.99135L8.2531 5.91535C8.23796 5.90589 8.22057 5.90065 8.20272 5.90018C8.18488 5.89971 8.16723 5.90403 8.15162 5.91268C8.13601 5.92134 8.123 5.93401 8.11394 5.94939C8.10488 5.96477 8.1001 5.9823 8.1001 6.00015V6.00015V12.1801V12.1802C8.10009 12.1983 8.10499 12.216 8.11426 12.2315C8.12354 12.2471 8.13684 12.2598 8.15276 12.2683L7.91609 12.7088L8.15276 12.2683C8.16868 12.2769 8.18663 12.281 8.20468 12.2801C8.2227 12.2793 8.24017 12.2736 8.25522 12.2637L8.3747 5.99135ZM8.3747 5.99135H8.3758L13.0531 8.91698C13.0532 8.91705 13.0533 8.91712 13.0534 8.91719C13.0674 8.92607 13.079 8.93829 13.0871 8.95275C13.0952 8.96733 13.0996 8.98372 13.0998 9.00043C13.1 9.01714 13.096 9.03363 13.0882 9.0484C13.0804 9.06317 13.069 9.07575 13.0551 9.08498L8.2553 12.2636L8.3747 5.99135Z" stroke="#8A8A8F"/>
<path d="M3.3999 0.600098C2.60425 0.600098 1.84119 0.916168 1.27858 1.47878C0.715973 2.04139 0.399902 2.80445 0.399902 3.6001V14.4001C0.399902 15.1957 0.715973 15.9588 1.27858 16.5214C1.84119 17.084 2.60425 17.4001 3.3999 17.4001H16.5999C17.3956 17.4001 18.1586 17.084 18.7212 16.5214C19.2838 15.9588 19.5999 15.1957 19.5999 14.4001V3.6001C19.5999 2.80445 19.2838 2.04139 18.7212 1.47878C18.1586 0.916168 17.3956 0.600098 16.5999 0.600098H3.3999ZM1.5999 3.6001C1.5999 3.12271 1.78954 2.66487 2.12711 2.32731C2.46468 1.98974 2.92251 1.8001 3.3999 1.8001H16.5999C17.0773 1.8001 17.5351 1.98974 17.8727 2.32731C18.2103 2.66487 18.3999 3.12271 18.3999 3.6001V14.4001C18.3999 14.8775 18.2103 15.3353 17.8727 15.6729C17.5351 16.0105 17.0773 16.2001 16.5999 16.2001H3.3999C2.92251 16.2001 2.46468 16.0105 2.12711 15.6729C1.78954 15.3353 1.5999 14.8775 1.5999 14.4001V3.6001Z" fill="#8A8A8F"/>
</svg>
