<svg width="14" height="14" viewBox="0 0 14 14" fill="none" xmlns="http://www.w3.org/2000/svg">
<path d="M8.13587 0.512587C7.97347 0.43512 7.78213 0.455654 7.64213 0.568587L3.1024 4.20019H0.933333C0.419067 4.20019 0 4.61925 0 5.13352V8.86685C0 9.38205 0.419067 9.80019 0.933333 9.80019H3.1024L7.6412 13.4318C7.72613 13.499 7.82973 13.5335 7.93333 13.5335C8.0024 13.5335 8.07147 13.5177 8.13587 13.4869C8.29733 13.4094 8.4 13.2461 8.4 13.0669V0.93352C8.4 0.75432 8.29733 0.590987 8.13587 0.512587Z" fill="white"/>
<path d="M10.7623 3.69972C10.5784 3.51866 10.2835 3.52146 10.1024 3.70346C9.92135 3.88732 9.92321 4.18226 10.1061 4.36426C10.8117 5.06052 11.2 5.99666 11.2 6.99999C11.2 8.00332 10.8117 8.93946 10.1061 9.63572C9.92321 9.81586 9.92135 10.1117 10.1024 10.2956C10.1939 10.388 10.3143 10.4337 10.4337 10.4337C10.5523 10.4337 10.6708 10.3889 10.7623 10.2984C11.6471 9.42759 12.1333 8.25532 12.1333 6.99999C12.1333 5.74466 11.6471 4.57239 10.7623 3.69972Z" fill="white"/>
<path d="M12.0788 2.38497C11.8949 2.20297 11.6 2.20483 11.418 2.38777C11.2369 2.5707 11.2388 2.86657 11.4208 3.04763C12.482 4.0995 13.0662 5.50323 13.0662 7.0003C13.0662 8.49737 12.482 9.90017 11.4208 10.952C11.2388 11.134 11.2369 11.4299 11.418 11.6128C11.5104 11.7043 11.6298 11.75 11.7493 11.75C11.8678 11.75 11.9873 11.7052 12.0788 11.6147C13.3182 10.3874 13.9996 8.74844 13.9996 7.0003C13.9996 5.25217 13.3182 3.61323 12.0788 2.38497Z" fill="white"/>
</svg>
