<svg width="157" height="179" viewBox="0 0 157 179" fill="none" xmlns="http://www.w3.org/2000/svg">
<g style="mix-blend-mode:multiply" filter="url(#filter0_i)">
<path fill-rule="evenodd" clip-rule="evenodd" d="M22.4286 78.3125V55.9375C22.4286 41.102 28.3361 26.874 38.8515 16.3837C49.3669 5.8934 63.6289 0 78.5 0C93.3711 0 107.633 5.8934 118.148 16.3837C128.664 26.874 134.571 41.102 134.571 55.9375V78.3125C140.52 78.3125 146.225 80.6699 150.431 84.866C154.637 89.0621 157 94.7533 157 100.688V156.625C157 162.559 154.637 168.25 150.431 172.447C146.225 176.643 140.52 179 134.571 179H22.4286C16.4801 179 10.7753 176.643 6.56918 172.447C2.363 168.25 0 162.559 0 156.625V100.688C0 94.7533 2.363 89.0621 6.56918 84.866C10.7753 80.6699 16.4801 78.3125 22.4286 78.3125ZM112.143 55.9375V78.3125H44.8571V55.9375C44.8571 47.0362 48.4016 38.4994 54.7109 32.2052C61.0202 25.911 69.5774 22.375 78.5 22.375C87.4226 22.375 95.9798 25.911 102.289 32.2052C108.598 38.4994 112.143 47.0362 112.143 55.9375Z" fill="#5A8FD5"/>
</g>
<defs>
<filter id="filter0_i" x="0" y="0" width="157" height="183" filterUnits="userSpaceOnUse" color-interpolation-filters="sRGB">
<feFlood flood-opacity="0" result="BackgroundImageFix"/>
<feBlend mode="normal" in="SourceGraphic" in2="BackgroundImageFix" result="shape"/>
<feColorMatrix in="SourceAlpha" type="matrix" values="0 0 0 0 0 0 0 0 0 0 0 0 0 0 0 0 0 0 127 0" result="hardAlpha"/>
<feOffset dy="4"/>
<feGaussianBlur stdDeviation="2"/>
<feComposite in2="hardAlpha" operator="arithmetic" k2="-1" k3="1"/>
<feColorMatrix type="matrix" values="0 0 0 0 0 0 0 0 0 0 0 0 0 0 0 0 0 0 0.25 0"/>
<feBlend mode="normal" in2="shape" result="effect1_innerShadow"/>
</filter>
</defs>
</svg>
