<svg width="36" height="40" viewBox="0 0 36 40" fill="none" xmlns="http://www.w3.org/2000/svg">
<path fill-rule="evenodd" clip-rule="evenodd" d="M5.5 17.5V12.5C5.5 9.18479 6.81696 6.00537 9.16117 3.66117C11.5054 1.31696 14.6848 0 18 0C21.3152 0 24.4946 1.31696 26.8388 3.66117C29.183 6.00537 30.5 9.18479 30.5 12.5V17.5C31.8261 17.5 33.0979 18.0268 34.0355 18.9645C34.9732 19.9021 35.5 21.1739 35.5 22.5V35C35.5 36.3261 34.9732 37.5979 34.0355 38.5355C33.0979 39.4732 31.8261 40 30.5 40H5.5C4.17392 40 2.90215 39.4732 1.96447 38.5355C1.02678 37.5979 0.5 36.3261 0.5 35V22.5C0.5 21.1739 1.02678 19.9021 1.96447 18.9645C2.90215 18.0268 4.17392 17.5 5.5 17.5ZM25.5 12.5V17.5H10.5V12.5C10.5 10.5109 11.2902 8.60322 12.6967 7.1967C14.1032 5.79018 16.0109 5 18 5C19.9891 5 21.8968 5.79018 23.3033 7.1967C24.7098 8.60322 25.5 10.5109 25.5 12.5Z" fill="#5A8FD5"/>
</svg>
