<svg width="15" height="15" viewBox="0 0 15 15" fill="none" xmlns="http://www.w3.org/2000/svg">
<path d="M14.4998 13.7928L10.7238 10.0168C11.6312 8.92747 12.0837 7.53023 11.9871 6.11577C11.8906 4.7013 11.2524 3.37851 10.2054 2.42257C9.15843 1.46663 7.78318 0.951151 6.36579 0.983357C4.9484 1.01556 3.59799 1.59298 2.59548 2.59548C1.59298 3.59799 1.01556 4.9484 0.983357 6.36579C0.951151 7.78318 1.46663 9.15843 2.42257 10.2054C3.37851 11.2524 4.7013 11.8906 6.11577 11.9871C7.53023 12.0837 8.92747 11.6312 10.0168 10.7238L13.7928 14.4998L14.4998 13.7928ZM1.99981 6.49981C1.99981 5.6098 2.26373 4.73977 2.7582 3.99975C3.25267 3.25973 3.95547 2.68295 4.77774 2.34236C5.60001 2.00176 6.50481 1.91265 7.37772 2.08628C8.25063 2.25991 9.05246 2.6885 9.68179 3.31783C10.3111 3.94717 10.7397 4.74899 10.9133 5.62191C11.087 6.49482 10.9979 7.39962 10.6573 8.22189C10.3167 9.04416 9.7399 9.74696 8.99988 10.2414C8.25986 10.7359 7.38983 10.9998 6.49981 10.9998C5.30675 10.9985 4.16292 10.524 3.31929 9.68033C2.47567 8.83671 2.00114 7.69288 1.99981 6.49981Z" fill="#C4C4C4"/>
</svg>
