<svg width="35" height="35" viewBox="0 0 35 35" fill="none" xmlns="http://www.w3.org/2000/svg">
<path d="M32.7272 28.5566C31.8982 26.593 30.6952 24.8094 29.1852 23.3052C27.6797 21.7966 25.8964 20.5938 23.9337 19.7632C23.9161 19.7544 23.8985 19.75 23.881 19.7412C26.6188 17.7637 28.3985 14.5425 28.3985 10.9082C28.3985 4.8877 23.5206 0.00976562 17.5001 0.00976562C11.4796 0.00976562 6.60167 4.8877 6.60167 10.9082C6.60167 14.5425 8.38146 17.7637 11.1193 19.7456C11.1017 19.7544 11.0841 19.7588 11.0665 19.7676C9.09777 20.5981 7.33116 21.7891 5.81505 23.3096C4.30645 24.815 3.10365 26.5983 2.27306 28.561C1.45709 30.4826 1.01702 32.5427 0.976672 34.6299C0.975499 34.6768 0.983726 34.7234 1.00087 34.7671C1.01801 34.8108 1.04372 34.8506 1.07648 34.8842C1.10925 34.9178 1.1484 34.9444 1.19164 34.9627C1.23487 34.9809 1.28132 34.9902 1.32823 34.9902H3.96495C4.15831 34.9902 4.31212 34.8364 4.31652 34.6475C4.40441 31.2549 5.76671 28.0776 8.17491 25.6694C10.6666 23.1777 13.9757 21.8066 17.5001 21.8066C21.0245 21.8066 24.3336 23.1777 26.8253 25.6694C29.2335 28.0776 30.5958 31.2549 30.6837 34.6475C30.6881 34.8408 30.8419 34.9902 31.0353 34.9902H33.672C33.7189 34.9902 33.7653 34.9809 33.8086 34.9627C33.8518 34.9444 33.891 34.9178 33.9237 34.8842C33.9565 34.8506 33.9822 34.8108 33.9994 34.7671C34.0165 34.7234 34.0247 34.6768 34.0235 34.6299C33.9796 32.5293 33.5445 30.4858 32.7272 28.5566ZM17.5001 18.4668C15.483 18.4668 13.5846 17.6802 12.1564 16.252C10.7281 14.8237 9.94152 12.9253 9.94152 10.9082C9.94152 8.89111 10.7281 6.99268 12.1564 5.56445C13.5846 4.13623 15.483 3.34961 17.5001 3.34961C19.5172 3.34961 21.4156 4.13623 22.8439 5.56445C24.2721 6.99268 25.0587 8.89111 25.0587 10.9082C25.0587 12.9253 24.2721 14.8237 22.8439 16.252C21.4156 17.6802 19.5172 18.4668 17.5001 18.4668Z" fill="#58C0ED"/>
</svg>
